# xmcd
#
# Track frame offsets: 
#        150
#        21480
#        42437
#        73802
#        87093
#        110899
#        130824
#        147724
#        163611
#        183139
#        191908
#        207733
#        242888
#
# Disc length: 3583 seconds
#
# Revision: 0
# Processed by: cddbd v1.5.1PL0 Copyright (c) Steve Scherf et al.
# Submitted via: ExactAudioCopy v0.95a5
#
DISCID=d00dfd0d
DTITLE=Yonder Mountain String Band - Live - Carroboro, NC (4-19-01) - 
DTITLE=CD1
DYEAR=2001
DGENRE=Bluegrass
TTITLE0=Pow Wow the Indian Boy
TTITLE1=At the End of the Day
TTITLE2=Left me in a Hole
TTITLE3=This Lonesome Hear
TTITLE4=Half Moon Rising
TTITLE5=Armadillo Breakdown
TTITLE6=Must Have Had Reasons
TTITLE7=Country Boy Rock and Roll
TTITLE8=Going Across the Sea
TTITLE9=Naughty Sweetie
TTITLE10=Peace of Mind
TTITLE11=Dogs
TTITLE12=Peace of Mind II
EXTD=
EXTT0=
EXTT1=
EXTT2=
EXTT3=
EXTT4=
EXTT5=
EXTT6=
EXTT7=
EXTT8=
EXTT9=
EXTT10=
EXTT11=
EXTT12=
PLAYORDER=
